<svg xmlns="http://www.w3.org/2000/svg" viewBox="0 0 240 240" width="240" height="240" role="img"><rect x="0" y="0" width="240" height="240" rx="28" fill="#fce1df"/><circle cx="120" cy="118" r="86" fill="#fac7c2"/><path d="M38 242 C38 194 70 164 120 164 C170 164 202 194 202 242 Z" fill="#FAFAF7"/><path d="M104 166 L120 186 L136 166 Q120 160 104 166 Z" fill="#FFDCB8"/><path d="M112 182 L120 176 L128 182 L120 192 Z" fill="#F26B5E"/><circle cx="102" cy="200" r="3.5" fill="#C9CED6"/><circle cx="102" cy="216" r="3.5" fill="#C9CED6"/><circle cx="138" cy="200" r="3.5" fill="#C9CED6"/><circle cx="138" cy="216" r="3.5" fill="#C9CED6"/><path d="M104 132 L136 132 L136 168 Q120 176 104 168 Z" fill="#F3C393"/><circle cx="74" cy="104" r="10" fill="#FFDCB8"/><circle cx="166" cy="104" r="10" fill="#FFDCB8"/><ellipse cx="120" cy="100" rx="46" ry="50" fill="#FFDCB8"/><circle cx="96" cy="118" r="7" fill="#F26B5E" opacity="0.28"/><circle cx="144" cy="118" r="7" fill="#F26B5E" opacity="0.28"/><circle cx="102" cy="100" r="5.6" fill="#332A26"/><circle cx="104" cy="98" r="1.9" fill="#FFFFFF"/><circle cx="138" cy="100" r="5.6" fill="#332A26"/><circle cx="140" cy="98" r="1.9" fill="#FFFFFF"/><path d="M92 86 Q102 80 112 86" fill="none" stroke="#2A2320" stroke-width="4.4" stroke-linecap="round"/><path d="M128 86 Q138 80 148 86" fill="none" stroke="#2A2320" stroke-width="4.4" stroke-linecap="round"/><path d="M115 110 Q120 116 125 110" fill="none" stroke="#F3C393" stroke-width="4" stroke-linecap="round"/><path d="M76 98 Q78 156 120 158 Q162 156 164 98 L164 94 Q150 116 120 116 Q90 116 76 94 Z" fill="#2A2320"/><circle cx="120" cy="130" r="12" fill="#FFDCB8"/><path d="M110 126 Q120 134 130 126" fill="none" stroke="#5E4034" stroke-width="4" stroke-linecap="round"/><path d="M102 121 Q111 114 120 121 Q129 114 138 121 Q129 127 120 124 Q111 127 102 121 Z" fill="#2A2320"/><path d="M92 52 Q104 44 120 44" fill="none" stroke="#FFFFFF" stroke-width="5" stroke-linecap="round" opacity="0.35"/><circle cx="96" cy="42" r="18" fill="#FAFAF7"/><circle cx="120" cy="32" r="20" fill="#FAFAF7"/><circle cx="144" cy="42" r="18" fill="#FAFAF7"/><path d="M88 44 L152 44 L150 74 L90 74 Z" fill="#FAFAF7"/><rect x="88" y="68" width="64" height="9" rx="4.5" fill="#E1E4E8"/><g transform="translate(196,196)"><circle cx="0" cy="0" r="26" fill="#FFFFFF" stroke="#f7a69e" stroke-width="4"/><ellipse cx="0" cy="-7" rx="5.5" ry="7" fill="#173B6C"/><path d="M0 0 L0 13" fill="none" stroke="#173B6C" stroke-width="3.4" stroke-linecap="round" stroke-linejoin="round"/></g></svg>