<svg xmlns="http://www.w3.org/2000/svg" viewBox="0 0 240 240" width="240" height="240" role="img"><rect x="0" y="0" width="240" height="240" rx="28" fill="#dcf0fa"/><circle cx="120" cy="118" r="86" fill="#bce2f6"/><circle cx="120" cy="36" r="16" fill="#6B4226"/><path d="M38 242 C38 194 70 164 120 164 C170 164 202 194 202 242 Z" fill="#22355C"/><path d="M98 166 L120 198 L142 166 Q120 158 98 166 Z" fill="#F7F9FB"/><path d="M116 178 L124 178 L122 206 L120 214 L118 206 Z" fill="#D94F42"/><rect x="52" y="178" width="26" height="9" rx="4" fill="#FFC928"/><rect x="162" y="178" width="26" height="9" rx="4" fill="#FFC928"/><circle cx="100" cy="216" r="3" fill="#FFC928"/><circle cx="140" cy="216" r="3" fill="#FFC928"/><path d="M104 132 L136 132 L136 168 Q120 176 104 168 Z" fill="#DFA271"/><circle cx="74" cy="104" r="10" fill="#F0B98A"/><circle cx="166" cy="104" r="10" fill="#F0B98A"/><ellipse cx="120" cy="100" rx="46" ry="50" fill="#F0B98A"/><circle cx="96" cy="118" r="7" fill="#F26B5E" opacity="0.28"/><circle cx="144" cy="118" r="7" fill="#F26B5E" opacity="0.28"/><circle cx="102" cy="100" r="5.6" fill="#332A26"/><circle cx="104" cy="98" r="1.9" fill="#FFFFFF"/><circle cx="138" cy="100" r="5.6" fill="#332A26"/><circle cx="140" cy="98" r="1.9" fill="#FFFFFF"/><path d="M92 86 Q102 80 112 86" fill="none" stroke="#6B4226" stroke-width="4.4" stroke-linecap="round"/><path d="M128 86 Q138 80 148 86" fill="none" stroke="#6B4226" stroke-width="4.4" stroke-linecap="round"/><path d="M115 110 Q120 116 125 110" fill="none" stroke="#DFA271" stroke-width="4" stroke-linecap="round"/><path d="M107 124 Q120 136 133 124" fill="none" stroke="#B4574B" stroke-width="4.6" stroke-linecap="round"/><path d="M75 98 Q74 40 120 40 Q166 40 165 98 L165 84 Q165 62 120 62 Q75 62 75 84 Z" fill="#6B4226"/><path d="M72 72 Q72 34 120 34 Q168 34 168 72 Z" fill="#22355C"/><path d="M72 72 L168 72 L168 64 Q120 78 72 64 Z" fill="#FFC928"/><path d="M78 76 Q120 94 162 76 L162 68 Q120 84 78 68 Z" fill="#1B2233"/><circle cx="120" cy="54" r="6.5" fill="#FFC928"/></svg>