<svg xmlns="http://www.w3.org/2000/svg" viewBox="0 0 240 240" width="240" height="240" role="img"><rect x="0" y="0" width="240" height="240" rx="28" fill="#dcf0fa"/><circle cx="120" cy="118" r="86" fill="#bce2f6"/><path d="M38 242 C38 194 70 164 120 164 C170 164 202 194 202 242 Z" fill="#46628F"/><path d="M98 166 L120 198 L142 166 Q120 158 98 166 Z" fill="#F7F9FB"/><path d="M98 166 L112 188 L100 212 L88 172 Z" fill="#395075"/><path d="M142 166 L128 188 L140 212 L152 172 Z" fill="#395075"/><path d="M104 132 L136 132 L136 168 Q120 176 104 168 Z" fill="#DFA271"/><circle cx="74" cy="104" r="10" fill="#F0B98A"/><circle cx="166" cy="104" r="10" fill="#F0B98A"/><ellipse cx="120" cy="100" rx="46" ry="50" fill="#F0B98A"/><circle cx="96" cy="118" r="7" fill="#F26B5E" opacity="0.28"/><circle cx="144" cy="118" r="7" fill="#F26B5E" opacity="0.28"/><circle cx="102" cy="100" r="5.6" fill="#332A26"/><circle cx="104" cy="98" r="1.9" fill="#FFFFFF"/><circle cx="138" cy="100" r="5.6" fill="#332A26"/><circle cx="140" cy="98" r="1.9" fill="#FFFFFF"/><path d="M92 86 Q102 80 112 86" fill="none" stroke="#9AA0A6" stroke-width="4.4" stroke-linecap="round"/><path d="M128 86 Q138 80 148 86" fill="none" stroke="#9AA0A6" stroke-width="4.4" stroke-linecap="round"/><path d="M115 110 Q120 116 125 110" fill="none" stroke="#DFA271" stroke-width="4" stroke-linecap="round"/><path d="M107 124 Q120 136 133 124" fill="none" stroke="#B4574B" stroke-width="4.6" stroke-linecap="round"/><rect x="87" y="88" width="28" height="23" rx="8" fill="rgba(255,255,255,0.14)" stroke="#26211E" stroke-width="4.6"/><rect x="125" y="88" width="28" height="23" rx="8" fill="rgba(255,255,255,0.14)" stroke="#26211E" stroke-width="4.6"/><path d="M115 97 L125 97" stroke="#26211E" stroke-width="4.6" stroke-linecap="round" fill="none"/><path d="M87 96 L76 93 M153 96 L164 93" stroke="#26211E" stroke-width="4" stroke-linecap="round" fill="none"/><path d="M75 98 Q74 40 120 40 Q166 40 165 98 L165 86 Q165 64 120 64 Q75 64 75 86 Z" fill="#9AA0A6"/><g transform="translate(196,196)"><circle cx="0" cy="0" r="26" fill="#FFFFFF" stroke="#95d1f1" stroke-width="4"/><path d="M0 -8 Q-6 -12 -12 -9 L-12 8 Q-6 5 0 9 Q6 5 12 8 L12 -9 Q6 -12 0 -8 Z" fill="none" stroke="#173B6C" stroke-width="3.4" stroke-linecap="round" stroke-linejoin="round"/><path d="M0 -8 L0 9" fill="none" stroke="#173B6C" stroke-width="3.4" stroke-linecap="round" stroke-linejoin="round"/></g></svg>